<!--?xml version="1.0" standalone="no"?-->
              <svg id="sw-js-blob-svg" viewBox="0 0 100 100" xmlns="http://www.w3.org/2000/svg" version="1.1">
                    <defs> 
                        <linearGradient id="sw-gradient" x1="0" x2="1" y1="1" y2="0">
                            <stop id="stop1" stop-color="rgba(162, 89, 255, 1)" offset="0%"></stop>
                            <stop id="stop2" stop-color="rgba(162, 89, 255, 1)" offset="100%"></stop>
                        </linearGradient>
                    </defs>
                <path fill="url(#sw-gradient)" d="M17.4,-29.7C21,-24.7,21.5,-17.4,25.1,-11C28.7,-4.7,35.3,0.7,35.5,5.7C35.7,10.7,29.4,15.4,23.5,18.1C17.6,20.7,12,21.4,6.6,23.5C1.2,25.6,-4.2,29,-10.2,29.6C-16.3,30.3,-23.1,28.1,-27.7,23.6C-32.2,19,-34.5,12.2,-35.5,5.1C-36.4,-1.9,-36,-9.1,-32.4,-13.9C-28.8,-18.8,-22.1,-21.4,-16.2,-25.4C-10.2,-29.4,-5.1,-34.9,0.9,-36.3C6.9,-37.6,13.7,-34.8,17.4,-29.7Z" width="100%" height="100%" transform="translate(50 50)" stroke-width="0" style="transition: all 0.3s ease 0s;"></path>
              </svg>