<svg width="84" height="46" viewBox="0 0 84 46" fill="none" xmlns="http://www.w3.org/2000/svg">
<path d="M0.0757813 17V3H3.33578L9.13578 12.52H7.41578L13.0558 3H16.3158L16.3558 17H12.7158L12.6758 8.54H13.2958L9.07578 15.62H7.31578L2.97578 8.54H3.73578V17H0.0757813ZM20.8378 21.06C20.2645 21.06 19.6845 20.9667 19.0978 20.78C18.5245 20.6067 18.0578 20.3733 17.6978 20.08L19.0178 17.42C19.2445 17.62 19.5045 17.7733 19.7978 17.88C20.1045 18 20.4045 18.06 20.6978 18.06C21.1111 18.06 21.4378 17.9667 21.6778 17.78C21.9178 17.5933 22.1245 17.3 22.2978 16.9L22.7978 15.64L23.0978 15.26L26.7778 6.16H30.3978L25.7178 17.44C25.3445 18.3733 24.9111 19.1 24.4178 19.62C23.9378 20.1533 23.3978 20.5267 22.7978 20.74C22.2111 20.9533 21.5578 21.06 20.8378 21.06ZM22.3178 17.46L17.5378 6.16H21.4378L24.9578 14.92L22.3178 17.46ZM35.8602 17L29.8802 3H34.1602L39.2002 15.12H36.6802L41.8402 3H45.7602L39.7602 17H35.8602ZM46.6927 17V6.16H50.4927V17H46.6927ZM48.5927 4.96C47.8993 4.96 47.3393 4.76667 46.9127 4.38C46.486 3.99333 46.2727 3.51333 46.2727 2.94C46.2727 2.36667 46.486 1.88667 46.9127 1.5C47.3393 1.11333 47.8993 0.92 48.5927 0.92C49.286 0.92 49.846 1.10667 50.2727 1.48C50.6993 1.84 50.9127 2.30667 50.9127 2.88C50.9127 3.48 50.6993 3.98 50.2727 4.38C49.8593 4.76667 49.2993 4.96 48.5927 4.96ZM58.6422 17.18C57.3622 17.18 56.2422 16.94 55.2822 16.46C54.3355 15.9667 53.5955 15.3 53.0622 14.46C52.5422 13.6067 52.2822 12.64 52.2822 11.56C52.2822 10.48 52.5355 9.52 53.0422 8.68C53.5622 7.82667 54.2755 7.16667 55.1822 6.7C56.0889 6.22 57.1089 5.98 58.2422 5.98C59.3089 5.98 60.2822 6.2 61.1622 6.64C62.0422 7.06667 62.7422 7.7 63.2622 8.54C63.7822 9.38 64.0422 10.4 64.0422 11.6C64.0422 11.7333 64.0355 11.8867 64.0222 12.06C64.0089 12.2333 63.9955 12.3933 63.9822 12.54H55.4022V10.54H61.9622L60.5222 11.1C60.5355 10.6067 60.4422 10.18 60.2422 9.82C60.0555 9.46 59.7889 9.18 59.4422 8.98C59.1089 8.78 58.7155 8.68 58.2622 8.68C57.8089 8.68 57.4089 8.78 57.0622 8.98C56.7289 9.18 56.4689 9.46667 56.2822 9.84C56.0955 10.2 56.0022 10.6267 56.0022 11.12V11.7C56.0022 12.2333 56.1089 12.6933 56.3222 13.08C56.5489 13.4667 56.8689 13.7667 57.2822 13.98C57.6955 14.18 58.1889 14.28 58.7622 14.28C59.2955 14.28 59.7489 14.2067 60.1222 14.06C60.5089 13.9 60.8889 13.66 61.2622 13.34L63.2622 15.42C62.7422 15.9933 62.1022 16.4333 61.3422 16.74C60.5822 17.0333 59.6822 17.18 58.6422 17.18ZM68.1789 17L64.3189 6.16H67.9189L70.9789 15.22H69.2589L72.4389 6.16H75.6789L78.7389 15.22H77.0589L80.2189 6.16H83.5589L79.6989 17H76.0189L73.4189 9.5H74.5389L71.8589 17H68.1789ZM10.3102 41V27H16.9302C18.4768 27 19.8368 27.2867 21.0102 27.86C22.1835 28.4333 23.0968 29.24 23.7502 30.28C24.4168 31.32 24.7502 32.56 24.7502 34C24.7502 35.4267 24.4168 36.6667 23.7502 37.72C23.0968 38.76 22.1835 39.5667 21.0102 40.14C19.8368 40.7133 18.4768 41 16.9302 41H10.3102ZM14.2702 37.84H16.7702C17.5702 37.84 18.2635 37.6933 18.8502 37.4C19.4502 37.0933 19.9168 36.6533 20.2502 36.08C20.5835 35.4933 20.7502 34.8 20.7502 34C20.7502 33.1867 20.5835 32.4933 20.2502 31.92C19.9168 31.3467 19.4502 30.9133 18.8502 30.62C18.2635 30.3133 17.5702 30.16 16.7702 30.16H14.2702V37.84ZM32.3336 41.18C31.0536 41.18 29.9336 40.94 28.9736 40.46C28.0269 39.9667 27.2869 39.3 26.7536 38.46C26.2336 37.6067 25.9736 36.64 25.9736 35.56C25.9736 34.48 26.2269 33.52 26.7336 32.68C27.2536 31.8267 27.9669 31.1667 28.8736 30.7C29.7803 30.22 30.8003 29.98 31.9336 29.98C33.0003 29.98 33.9736 30.2 34.8536 30.64C35.7336 31.0667 36.4336 31.7 36.9536 32.54C37.4736 33.38 37.7336 34.4 37.7336 35.6C37.7336 35.7333 37.7269 35.8867 37.7136 36.06C37.7003 36.2333 37.6869 36.3933 37.6736 36.54H29.0936V34.54H35.6536L34.2136 35.1C34.2269 34.6067 34.1336 34.18 33.9336 33.82C33.7469 33.46 33.4803 33.18 33.1336 32.98C32.8003 32.78 32.4069 32.68 31.9536 32.68C31.5003 32.68 31.1003 32.78 30.7536 32.98C30.4203 33.18 30.1603 33.4667 29.9736 33.84C29.7869 34.2 29.6936 34.6267 29.6936 35.12V35.7C29.6936 36.2333 29.8003 36.6933 30.0136 37.08C30.2403 37.4667 30.5603 37.7667 30.9736 37.98C31.3869 38.18 31.8803 38.28 32.4536 38.28C32.9869 38.28 33.4403 38.2067 33.8136 38.06C34.2003 37.9 34.5803 37.66 34.9536 37.34L36.9536 39.42C36.4336 39.9933 35.7936 40.4333 35.0336 40.74C34.2736 41.0333 33.3736 41.18 32.3336 41.18ZM43.4256 41.18C42.5056 41.18 41.6056 41.0733 40.7256 40.86C39.859 40.6467 39.159 40.38 38.6256 40.06L39.7656 37.46C40.2723 37.7667 40.8656 38.0133 41.5456 38.2C42.2256 38.3733 42.8923 38.46 43.5456 38.46C44.1856 38.46 44.6256 38.3933 44.8656 38.26C45.119 38.1267 45.2456 37.9467 45.2456 37.72C45.2456 37.5067 45.1256 37.3533 44.8856 37.26C44.659 37.1533 44.3523 37.0733 43.9656 37.02C43.5923 36.9667 43.179 36.9067 42.7256 36.84C42.2723 36.7733 41.8123 36.6867 41.3456 36.58C40.8923 36.46 40.4723 36.2867 40.0856 36.06C39.7123 35.82 39.4123 35.5 39.1856 35.1C38.959 34.7 38.8456 34.1933 38.8456 33.58C38.8456 32.8867 39.0456 32.2733 39.4456 31.74C39.859 31.1933 40.459 30.7667 41.2456 30.46C42.0323 30.14 42.9923 29.98 44.1256 29.98C44.8856 29.98 45.6523 30.06 46.4256 30.22C47.2123 30.3667 47.8723 30.5933 48.4056 30.9L47.2656 33.48C46.7323 33.1733 46.199 32.9667 45.6656 32.86C45.1323 32.74 44.6256 32.68 44.1456 32.68C43.5056 32.68 43.0523 32.7533 42.7856 32.9C42.5323 33.0467 42.4056 33.2267 42.4056 33.44C42.4056 33.6533 42.519 33.82 42.7456 33.94C42.9723 34.0467 43.2723 34.1333 43.6456 34.2C44.0323 34.2533 44.4523 34.3133 44.9056 34.38C45.359 34.4333 45.8123 34.52 46.2656 34.64C46.7323 34.76 47.1523 34.94 47.5256 35.18C47.9123 35.4067 48.219 35.72 48.4456 36.12C48.6723 36.5067 48.7856 37.0067 48.7856 37.62C48.7856 38.2867 48.579 38.8867 48.1656 39.42C47.7656 39.9533 47.1656 40.38 46.3656 40.7C45.579 41.02 44.599 41.18 43.4256 41.18ZM50.4231 41V30.16H54.2231V41H50.4231ZM52.3231 28.96C51.6298 28.96 51.0698 28.7667 50.6431 28.38C50.2165 27.9933 50.0031 27.5133 50.0031 26.94C50.0031 26.3667 50.2165 25.8867 50.6431 25.5C51.0698 25.1133 51.6298 24.92 52.3231 24.92C53.0165 24.92 53.5765 25.1067 54.0031 25.48C54.4298 25.84 54.6431 26.3067 54.6431 26.88C54.6431 27.48 54.4298 27.98 54.0031 28.38C53.5898 28.7667 53.0298 28.96 52.3231 28.96ZM61.9927 45.06C60.9527 45.06 59.9593 44.94 59.0127 44.7C58.0793 44.46 57.2793 44.1067 56.6127 43.64L57.9927 40.98C58.446 41.34 59.006 41.62 59.6727 41.82C60.3527 42.0333 61.0127 42.14 61.6527 42.14C62.6793 42.14 63.4193 41.9133 63.8727 41.46C64.326 41.02 64.5527 40.3733 64.5527 39.52V38.24L64.7527 35.2L64.7327 32.14V30.16H68.3527V39.02C68.3527 41.0733 67.7993 42.5933 66.6927 43.58C65.586 44.5667 64.0193 45.06 61.9927 45.06ZM61.3327 40.44C60.3727 40.44 59.486 40.2267 58.6727 39.8C57.8727 39.36 57.226 38.7533 56.7327 37.98C56.2527 37.1933 56.0127 36.2667 56.0127 35.2C56.0127 34.1333 56.2527 33.2133 56.7327 32.44C57.226 31.6533 57.8727 31.0467 58.6727 30.62C59.486 30.1933 60.3727 29.98 61.3327 29.98C62.2527 29.98 63.0393 30.1667 63.6927 30.54C64.346 30.9 64.8393 31.4667 65.1727 32.24C65.5193 33.0133 65.6927 34 65.6927 35.2C65.6927 36.4 65.5193 37.3867 65.1727 38.16C64.8393 38.9333 64.346 39.5067 63.6927 39.88C63.0393 40.2533 62.2527 40.44 61.3327 40.44ZM62.2327 37.42C62.686 37.42 63.086 37.3267 63.4327 37.14C63.7927 36.9533 64.0727 36.6933 64.2727 36.36C64.486 36.0267 64.5927 35.64 64.5927 35.2C64.5927 34.76 64.486 34.3733 64.2727 34.04C64.0727 33.7067 63.7927 33.4533 63.4327 33.28C63.086 33.0933 62.686 33 62.2327 33C61.7793 33 61.3727 33.0933 61.0127 33.28C60.6527 33.4533 60.366 33.7067 60.1527 34.04C59.9527 34.3733 59.8527 34.76 59.8527 35.2C59.8527 35.64 59.9527 36.0267 60.1527 36.36C60.366 36.6933 60.6527 36.9533 61.0127 37.14C61.3727 37.3267 61.7793 37.42 62.2327 37.42ZM77.8542 29.98C78.6942 29.98 79.4542 30.1533 80.1342 30.5C80.8142 30.8333 81.3476 31.3533 81.7342 32.06C82.1342 32.7667 82.3342 33.68 82.3342 34.8V41H78.5342V35.42C78.5342 34.6467 78.3742 34.0867 78.0542 33.74C77.7476 33.38 77.3142 33.2 76.7542 33.2C76.3542 33.2 75.9876 33.2933 75.6542 33.48C75.3209 33.6533 75.0609 33.9267 74.8742 34.3C74.6876 34.6733 74.5942 35.16 74.5942 35.76V41H70.7942V30.16H74.4142V33.24L73.7142 32.34C74.1276 31.5533 74.6942 30.9667 75.4142 30.58C76.1342 30.18 76.9476 29.98 77.8542 29.98Z" fill="white"/>
</svg>
